<svg xmlns="http://www.w3.org/2000/svg" width="980" height="560" viewBox="0 0 980 560" fill="none">
  <defs>
    <linearGradient id="bg" x1="0" y1="0" x2="0" y2="560" gradientUnits="userSpaceOnUse">
      <stop stop-color="#0B1220"/>
      <stop offset="1" stop-color="#0F1A33"/>
    </linearGradient>
    <linearGradient id="panel" x1="44" y1="44" x2="936" y2="516" gradientUnits="userSpaceOnUse">
      <stop stop-color="#FFFFFF"/>
      <stop offset="1" stop-color="#FBFCFE"/>
    </linearGradient>
    <filter id="shadow" x="-40" y="-40" width="1060" height="640" filterUnits="userSpaceOnUse">
      <feDropShadow dx="0" dy="18" stdDeviation="20" flood-color="#0B1220" flood-opacity="0.38"/>
    </filter>
  </defs>

  <rect x="0" y="0" width="980" height="560" rx="26" fill="url(#bg)"/>
  <rect x="44" y="44" width="892" height="472" rx="22" fill="url(#panel)" filter="url(#shadow)"/>
  <rect x="44" y="44" width="892" height="472" rx="22" stroke="rgba(255,255,255,0.10)"/>

  <rect x="44" y="44" width="892" height="92" rx="22" fill="#F6F8FB"/>
  <rect x="74" y="72" width="5" height="36" rx="3" fill="#21C55D"/>
  <text x="92" y="92" font-family="ui-sans-serif, system-ui, -apple-system, Segoe UI, Roboto, Helvetica, Arial" font-size="20" font-weight="900" fill="#0B1220">Outreach Intelligence Brief</text>
  <text x="92" y="118" font-family="ui-sans-serif, system-ui, -apple-system, Segoe UI, Roboto, Helvetica, Arial" font-size="13" font-weight="700" fill="#3A465A">Member ID 28417  |  Updated: Today  |  Confidence</text>

  <rect x="402" y="105" width="72" height="20" rx="999" fill="rgba(33,197,93,0.14)" stroke="rgba(33,197,93,0.32)"/>
  <text x="420" y="119" font-family="ui-sans-serif, system-ui, -apple-system, Segoe UI, Roboto, Helvetica, Arial" font-size="12" font-weight="900" fill="#0B1220">High</text>

  <rect x="74" y="156" width="372" height="126" rx="16" fill="#FFFFFF" stroke="rgba(11,18,32,0.14)"/>
  <text x="96" y="186" font-family="ui-sans-serif, system-ui, -apple-system, Segoe UI, Roboto, Helvetica, Arial" font-size="13" font-weight="900" fill="#3A465A">Current engagement posture</text>
  <text x="96" y="218" font-family="ui-sans-serif, system-ui, -apple-system, Segoe UI, Roboto, Helvetica, Arial" font-size="22" font-weight="950" fill="#0B1220">Structure-seeking</text>
  <text x="96" y="246" font-family="ui-sans-serif, system-ui, -apple-system, Segoe UI, Roboto, Helvetica, Arial" font-size="13" font-weight="650" fill="#3A465A">Responds best to clear direction and reduced choice burden.</text>

  <rect x="74" y="298" width="372" height="198" rx="16" fill="#FFFFFF" stroke="rgba(11,18,32,0.14)"/>
  <text x="96" y="328" font-family="ui-sans-serif, system-ui, -apple-system, Segoe UI, Roboto, Helvetica, Arial" font-size="13" font-weight="900" fill="#3A465A">Drivers</text>

  <rect x="96" y="350" width="326" height="34" rx="999" fill="#F6F8FB" stroke="rgba(11,18,32,0.10)"/>
  <circle cx="114" cy="367" r="6" fill="rgba(33,197,93,0.18)" stroke="rgba(33,197,93,0.44)"/>
  <path d="M111 367l2 2 4-5" stroke="#21C55D" stroke-width="2" stroke-linecap="round" stroke-linejoin="round"/>
  <text x="128" y="372" font-family="ui-sans-serif, system-ui, -apple-system, Segoe UI, Roboto, Helvetica, Arial" font-size="12" font-weight="800" fill="#0B1220">No follow-through after SMS reminders (3x)</text>
</svg>
